# xmcd
#
# Track frame offsets: 
#        150
#        20680
#        37305
#        56962
#        80580
#        96000
#        115717
#        129970
#        152152
#        166750
#        179600
#        193815
#        215037
#        239605
#
# Disc length: 3285 seconds
#
# Revision: 3
# Processed by: cddbd v1.5.2PL0 Copyright (c) Steve Scherf et al.
# Submitted via: ExactAudioCopyFreeDBPlugin 1.0
#
DISCID=cb0cd30e
DTITLE=中村由利子 - 絹の薔薇 Graces of Eternity
DYEAR=1989
DGENRE=Instrumental
TTITLE0=誓い
TTITLE1=雨の薔薇
TTITLE2=霧のシャコンヌ
TTITLE3=追憶の街
TTITLE4=思いをとどけて
TTITLE5=回転木馬
TTITLE6=風のエトランゼ
TTITLE7=青春のロンド
TTITLE8=若草の戯れのように
TTITLE9=いにしえの宵に
TTITLE10=愛の寂しさよりも
TTITLE11=過ぎた日々の孤独
TTITLE12=晩夏
TTITLE13=回転木馬(Reprise)
EXTD=ID3G:  33
EXTT0=
EXTT1=
EXTT2=
EXTT3=
EXTT4=
EXTT5=
EXTT6=
EXTT7=
EXTT8=
EXTT9=
EXTT10=
EXTT11=
EXTT12=
EXTT13=
PLAYORDER=
